<svg width="900" xmlns="http://www.w3.org/2000/svg" height="900" fill="none"><defs><clipPath id="a" class="frame-clip frame-clip-def"><rect rx="0" ry="0" width="900" height="900"/></clipPath></defs><g clip-path="url(#a)"><g class="fills"><rect width="900" height="900" class="frame-background" style="fill: rgb(255, 255, 255); fill-opacity: 0;" ry="0" rx="0" fill="none"/></g><g class="frame-children"><rect rx="280" ry="280" width="900" height="900" style="fill: rgb(31, 31, 31); fill-opacity: 1;" class="fills"/><g class="strokes"><g class="inner-stroke-shape"><defs><clipPath id="c"><use href="#b"/></clipPath><rect rx="280" ry="280" x="0" y="0" width="900" height="900" id="b" style="fill: none; stroke-width: 180; stroke: rgb(24, 24, 24); stroke-opacity: 1;"/></defs><use href="#b" clip-path="url('#c')"/></g></g><g style="fill: rgb(0, 0, 0);"><path d="M437.156 303.011v41.447c0 6.949 6.005 12.636 13.344 12.636 7.339 0 13.344-5.687 13.344-12.636v-41.447c0-6.95-6.005-12.636-13.344-12.636-7.339 0-13.344 5.686-13.344 12.636Zm-13.343 227.552h53.375v53.375h-53.375v-53.375Z" style="fill: rgb(255, 130, 45);" class="fills"/><path d="M290.375 597.281Zc-14.665 0-26.687 12.01-26.687 26.688h373.625c0-14.678-12.023-26.688-26.716-26.688h.028c0-14.678-11.876-26.687-26.687-26.687H317.063c-14.679 0-26.688 12.009-26.688 26.687Z" style="fill: rgb(92, 38, 20);" class="fills"/><path d="M477.143 290.375h-53.286c-7.364 0-13.388 6.005-13.388 13.344 0 7.339 6.024 13.344 13.388 13.344h53.286c7.364 0 13.388-6.005 13.388-13.344 0-7.339-6.024-13.344-13.388-13.344Zm133.091 205.336v8.945c0 7.076 5.603 12.683 12.806 12.549h.934c7.336 0 13.339 6.008 13.339 13.351 0 7.343-6.003 13.35-13.339 13.35H277.026c-7.336 0-13.338-6.007-13.338-13.35s6.002-13.351 13.338-13.351a13.44 13.44 0 0 0 13.473-13.483v-13.351c0-89.315 73.231-161.541 162.869-159.939 88.038 1.602 156.866 77.167 156.866 165.279Z" style="fill: rgb(255, 176, 46);" class="fills"/><path d="M503.608 410.469c14.738 0 26.688-11.948 26.688-26.688 0-14.739-11.95-26.687-26.688-26.687-14.739 0-26.687 11.948-26.687 26.687 0 14.74 11.948 26.688 26.687 26.688Z" style="fill: rgb(255, 255, 255);" class="fills"/></g></g></g></svg>